<svg id="SvgjsSvg1124" width="288" height="288" xmlns="http://www.w3.org/2000/svg" version="1.1" xmlns:xlink="http://www.w3.org/1999/xlink" xmlns:svgjs="http://svgjs.com/svgjs"><defs id="SvgjsDefs1125"></defs><g id="SvgjsG1126"><svg xmlns="http://www.w3.org/2000/svg" fill="none" viewBox="0 0 48 48" width="288" height="288"><path fill="#ffffff" d="M0 24C0 10.745 10.745 0 24 0s24 10.745 24 24-10.745 24-24 24S0 37.255 0 24Z" class="colorfff svgShape"></path><mask id="a" width="48" height="48" x="0" y="0" maskUnits="userSpaceOnUse"><path fill="#ffffff" fill-rule="evenodd" d="M0 24C0 10.745 10.745 0 24 0s24 10.745 24 24-10.745 24-24 24S0 37.255 0 24Z" clip-rule="evenodd" class="colorfff svgShape"></path></mask><g mask="url(#a)" fill="#000000" class="color000 svgShape"><path fill="#000000" fill-rule="evenodd" d="M24.001 11.2c-3.476 0-3.912.015-5.278.077-1.362.063-2.293.278-3.106.595a6.267 6.267 0 0 0-2.268 1.476 6.283 6.283 0 0 0-1.477 2.267c-.318.814-.534 1.745-.595 3.107-.061 1.365-.077 1.802-.077 5.278 0 3.476.016 3.911.077 5.277.063 1.362.279 2.293.595 3.106a6.272 6.272 0 0 0 1.476 2.268 6.267 6.267 0 0 0 2.267 1.477c.814.317 1.745.532 3.107.595 1.366.062 1.802.077 5.278.077 3.476 0 3.911-.015 5.276-.077 1.363-.063 2.294-.278 3.109-.595a6.262 6.262 0 0 0 2.266-1.477 6.284 6.284 0 0 0 1.477-2.267c.315-.814.53-1.745.595-3.107.061-1.365.077-1.8.077-5.277 0-3.476-.016-3.913-.077-5.278-.064-1.363-.28-2.293-.595-3.107a6.282 6.282 0 0 0-1.477-2.267 6.255 6.255 0 0 0-2.267-1.476c-.816-.317-1.747-.532-3.11-.595-1.365-.062-1.8-.077-5.277-.077h.004Zm-.427 2.307h.427c3.418 0 3.823.012 5.172.073 1.249.057 1.926.266 2.377.441.597.232 1.023.51 1.471.957.448.448.725.875.958 1.472.175.451.384 1.128.44 2.376.062 1.35.075 1.755.075 5.171 0 3.416-.013 3.822-.074 5.17-.057 1.249-.266 1.926-.441 2.377a3.958 3.958 0 0 1-.958 1.47 3.958 3.958 0 0 1-1.47.958c-.452.176-1.13.384-2.377.44-1.35.062-1.755.075-5.173.075s-3.823-.013-5.172-.074c-1.248-.058-1.925-.266-2.377-.442a3.965 3.965 0 0 1-1.472-.957 3.967 3.967 0 0 1-.958-1.471c-.175-.45-.384-1.128-.44-2.376-.062-1.35-.074-1.755-.074-5.173s.012-3.821.073-5.17c.057-1.249.266-1.926.441-2.377.232-.598.51-1.024.958-1.472a3.972 3.972 0 0 1 1.472-.958c.451-.176 1.129-.384 2.377-.442 1.18-.053 1.638-.069 4.024-.072v.004h.721Zm5.724 3.66a1.536 1.536 0 1 1 3.071 0 1.536 1.536 0 0 1-3.071 0Zm-5.297.26a6.574 6.574 0 1 0 .001 13.147 6.574 6.574 0 0 0-.001-13.147ZM28.268 24a4.267 4.267 0 1 0-8.533 0 4.267 4.267 0 0 0 8.533 0Z" clip-rule="evenodd" class="color000 svgShape"></path></g></svg></g></svg>